<?xml version="1.0" encoding="UTF-8"?>
<svg version="1.1" xmlns="http://www.w3.org/2000/svg" width="773" height="332">
<path d="M0 0 C255.09 0 510.18 0 773 0 C773 109.56 773 219.12 773 332 C517.91 332 262.82 332 0 332 C0 222.44 0 112.88 0 0 Z " fill="#FEFEFE" transform="translate(0,0)"/>
<path d="M0 0 C2.77460563 1.23315806 3.61552788 2.46322117 5.25 5 C5.93847656 7.17553711 5.93847656 7.17553711 6.390625 9.52734375 C6.57036865 10.39584961 6.7501123 11.26435547 6.93530273 12.15917969 C7.12165283 13.07602539 7.30800293 13.99287109 7.5 14.9375 C9.49698711 23.99174814 12.17977199 31.16621914 17.25 39 C17.82621094 39.89589844 18.40242187 40.79179688 18.99609375 41.71484375 C20.00892133 43.25230145 21.03636862 44.78035477 22.0859375 46.29296875 C24.71200008 50.14393972 24.39790001 53.67238061 24.375 58.1875 C24.37886719 58.93064453 24.38273438 59.67378906 24.38671875 60.43945312 C24.37861774 65.06107915 24.01082453 69.44109112 23.25 74 C24.425625 74.53625 25.60125 75.0725 26.8125 75.625 C35.36079955 79.95191706 42.16902783 86.75708349 45.25 96 C45.93510259 103.0793934 45.93510259 103.0793934 43.25 106.6875 C31.64265869 115.63482559 21.10795712 118.34706303 6.5625 118.4375 C5.50554932 118.4475708 4.44859863 118.4576416 3.35961914 118.46801758 C-6.05708361 118.36416501 -14.17684776 116.77951092 -21.75 111 C-21.75 111.99 -21.75 112.98 -21.75 114 C-25.80387913 114.60808187 -28.25728982 114.01529435 -31.5625 111.75 C-38.56602326 106.09330814 -44.07187209 98.16846072 -47.75 90 C-47.75 89.34 -47.75 88.68 -47.75 88 C-48.554375 87.71125 -49.35875 87.4225 -50.1875 87.125 C-52.75 86 -52.75 86 -53.75 84 C-52.1 84.66 -50.45 85.32 -48.75 86 C-50.04775308 82.10674077 -51.37890501 79.43467972 -54.75 77 C-57.94954954 77.14349347 -57.94954954 77.14349347 -60.75 78 C-65.78536744 71.11833116 -67.02941155 64.46461928 -67.375 56.0625 C-67.43300781 54.89364258 -67.43300781 54.89364258 -67.4921875 53.70117188 C-67.58544127 51.80112621 -67.66875962 49.90059722 -67.75 48 C-79.26082852 47.62259579 -89.16235501 49.04716377 -98.41796875 56.30859375 C-101.36435117 59.22196348 -102.11741628 61.89407283 -102.3125 65.875 C-101.80687778 74.33153168 -97.75801552 79.87935912 -91.7109375 85.59375 C-80.57547978 94.64314572 -67.52846184 100.81989973 -54.51757812 106.67700195 C-42.39437407 112.24122684 -30.89159437 120.28422897 -25.75 133 C-23.08596721 140.99209836 -23.75447507 150.01115986 -27.3125 157.5625 C-32.41601726 166.46676313 -39.67023279 171.19762003 -49.38671875 174.078125 C-67.37498609 178.36055083 -85.62203198 173.84020582 -101.2890625 164.6328125 C-105.68843583 161.71386321 -109.87866895 158.59386364 -113.75 155 C-115.12091797 153.75863281 -115.12091797 153.75863281 -116.51953125 152.4921875 C-120.12966794 148.03837756 -119.28004516 142.56028224 -119.0625 137.125 C-119.03994141 136.05507812 -119.01738281 134.98515625 -118.99414062 133.8828125 C-118.93545633 131.25375593 -118.8534118 128.62761418 -118.75 126 C-118.09 126 -117.43 126 -116.75 126 C-116.2653125 126.96679688 -115.780625 127.93359375 -115.28125 128.9296875 C-111.16060609 136.99646859 -106.86733108 144.24302403 -100.75 151 C-100.05132813 151.77988281 -99.35265625 152.55976563 -98.6328125 153.36328125 C-93.28747965 159.02248595 -87.54851327 163.22956017 -80.75 167 C-79.65171875 167.65355469 -79.65171875 167.65355469 -78.53125 168.3203125 C-72.75236312 171.23010413 -67.03738989 171.37768851 -60.6875 171.4375 C-59.84840088 171.44773193 -59.00930176 171.45796387 -58.14477539 171.46850586 C-50.44494937 171.36065248 -43.10344502 169.96818465 -37.3125 164.5625 C-36.67441406 163.98628906 -36.03632812 163.41007813 -35.37890625 162.81640625 C-32.12572749 159.18876087 -31.2815519 156.05344311 -31.4453125 151.140625 C-32.55023354 143.37784642 -37.91619952 137.8069789 -43.75 133 C-52.53358312 126.64140103 -61.92301536 121.76245194 -71.6484375 117.02685547 C-100.74639474 102.80915006 -100.74639474 102.80915006 -107.75 88 C-110.31561296 80.30316113 -109.45967001 70.58707602 -106.75 63 C-102.24392902 54.65542411 -94.63047992 49.15176058 -85.6640625 46.34765625 C-79.45362323 44.8118617 -73.11795967 44.4094458 -66.75 44 C-66.43546875 42.92621094 -66.1209375 41.85242188 -65.796875 40.74609375 C-65.36503599 39.30975966 -64.93271868 37.87356932 -64.5 36.4375 C-64.29503906 35.73302734 -64.09007812 35.02855469 -63.87890625 34.30273438 C-62.39351588 29.41895088 -60.42525788 25.35015223 -57.75 21 C-57.255 21.99 -57.255 21.99 -56.75 23 C-57.640625 25.46875 -57.640625 25.46875 -59 28.5 C-61.347517 33.91432891 -63.20167425 39.31021758 -64.75 45 C-63.595 44.95875 -62.44 44.9175 -61.25 44.875 C-56.87656775 44.88267269 -52.92543339 45.75641424 -48.75 47 C-47.85023438 47.26425781 -46.95046875 47.52851562 -46.0234375 47.80078125 C-43.59550155 48.52232278 -41.17232642 49.25984471 -38.75 50 C-37.76 46.37 -36.77 42.74 -35.75 39 C-37.73 37.35 -39.71 35.7 -41.75 34 C-41.255 33.01 -41.255 33.01 -40.75 32 C-38.77 33.65 -36.79 35.3 -34.75 37 C-34.10933594 36.02160156 -33.46867188 35.04320312 -32.80859375 34.03515625 C-28.05025748 26.8062519 -23.28852778 19.6639364 -17.75 13 C-16.77933594 11.81083984 -16.77933594 11.81083984 -15.7890625 10.59765625 C-6.82313614 0 -6.82313614 0 0 0 Z " fill="#F9F9F9" transform="translate(623.75,40)"/>
<path d="M0 0 C14.82085985 10.18128633 26.32793466 27.16320598 30.25 44.8125 C32.93326124 63.35987307 32.88243848 83.60682405 22.25 99.8125 C13.70458737 110.98983308 5.21858553 116.71721217 -8.75 118.8125 C-20.87374904 120.24820712 -32.29124793 116.25545245 -41.75 108.8125 C-55.76364104 96.97594045 -66.21851739 79.12843684 -68.75 60.8125 C-68.98543172 56.58507386 -68.98085524 52.35838585 -69 48.125 C-69.020625 47.00416016 -69.04125 45.88332031 -69.0625 44.72851562 C-69.132294 29.69663287 -64.40112667 15.76841613 -53.8671875 4.77734375 C-38.34104902 -9.63160027 -17.91639114 -10.75984384 0 0 Z " fill="#FDFDFD" transform="translate(239.75,94.1875)"/>
<path d="M0 0 C8.9451819 8.15778615 14.51528933 17.34600316 18.60717773 28.71020508 C19.12344727 29.90516602 19.12344727 29.90516602 19.65014648 31.12426758 C21.92942194 37.28296288 21.7900918 43.54277373 21.79467773 50.02270508 C21.80692383 50.92182617 21.81916992 51.82094727 21.83178711 52.74731445 C21.86221638 66.77520682 17.17540169 79.58723545 8.60717773 90.71020508 C7.67131836 91.92836914 7.67131836 91.92836914 6.71655273 93.17114258 C-3.6633046 105.6654153 -18.34510876 113.3018558 -34.39282227 115.71020508 C-53.01954307 117.03454471 -69.64385894 113.31351329 -84.16577148 100.85131836 C-93.65704289 92.27515843 -100.23901406 82.82547901 -104.39282227 70.71020508 C-104.71250977 69.80012695 -105.03219727 68.89004883 -105.36157227 67.95239258 C-110.53367895 50.75992684 -107.54101169 33.77774169 -99.76782227 17.96020508 C-90.65639492 2.40753732 -75.58732616 -9.25462778 -58.28735352 -14.17260742 C-37.44511853 -18.16666595 -16.24242201 -13.92174906 0 0 Z M-80.83032227 2.27270508 C-90.09392095 14.08445699 -92.57216443 26.80874009 -92.58032227 41.46020508 C-92.59256836 42.60231445 -92.60481445 43.74442383 -92.61743164 44.92114258 C-92.64932909 63.42166369 -85.63012333 80.82973285 -73.39282227 94.71020508 C-72.74571289 95.4552832 -72.09860352 96.20036133 -71.43188477 96.96801758 C-61.98330803 107.11077546 -50.7802015 112.44933607 -36.89282227 113.08520508 C-26.89979657 112.6443363 -18.11707935 110.1293814 -10.39282227 103.71020508 C-9.76762695 103.19586914 -9.14243164 102.6815332 -8.49829102 102.15161133 C0.92298472 93.59241312 7.03994498 79.02313874 7.73657227 66.35766602 C7.7377002 65.56134766 7.73882812 64.7650293 7.73999023 63.94458008 C7.7412793 63.05383789 7.74256836 62.1630957 7.74389648 61.24536133 C7.7400293 60.32625977 7.73616211 59.4071582 7.73217773 58.46020508 C7.73604492 57.55657227 7.73991211 56.65293945 7.74389648 55.72192383 C7.71355274 34.63302431 0.07947707 16.34369729 -14.81079102 1.26098633 C-24.31646485 -7.65518836 -34.53208875 -13.15015538 -47.76782227 -13.72729492 C-60.94368395 -13.25806908 -72.06380814 -7.4581256 -80.83032227 2.27270508 Z " fill="#080808" transform="translate(263.392822265625,100.289794921875)"/>
<path d="M0 0 C3 1 3 1 4.0037384 2.58256531 C4.44625191 3.60843498 4.44625191 3.60843498 4.89770508 4.6550293 C5.23848587 5.43061691 5.57926666 6.20620453 5.93037415 7.0052948 C6.28979599 7.8530397 6.64921783 8.70078461 7.01953125 9.57421875 C7.40058517 10.44963821 7.7816391 11.32505768 8.17424011 12.227005 C9.39710714 15.04291444 10.60492166 17.86500517 11.8125 20.6875 C12.6142571 22.54013678 13.41698093 24.39235551 14.22070312 26.24414062 C15.7780258 29.83654409 17.32586367 33.43279283 18.86572266 37.03271484 C20.1941701 40.13614356 21.53959982 43.23053779 22.91162109 46.31494141 C23.19575363 46.95921585 23.47988617 47.6034903 23.77262878 48.26728821 C24.51396514 49.94562134 25.26194054 51.62101771 26.01049805 53.29614258 C27 56 27 56 27 60 C25.96101563 60.21914062 24.92203125 60.43828125 23.8515625 60.6640625 C15.28755436 62.57197261 8.2153499 64.78891396 1 70 C0.113125 70.5775 -0.77375 71.155 -1.6875 71.75 C-9.95570387 79.7947389 -15.16396023 90.76540311 -19 101.5 C-20.33177318 104.91748407 -21.08449113 106.07898084 -23.875 108.6875 C-27.6024921 110.25304668 -29.212764 110.3996307 -33 109 C-36.80069928 105.19235246 -37.61369033 102.51882898 -37.6875 97.1875 C-37.41707696 75.82408008 -26.63827664 55.02409442 -18 36 C-17.42499756 34.72141113 -17.42499756 34.72141113 -16.83837891 33.41699219 C-11.70180818 22.03193424 -5.90335723 11.00320194 0 0 Z " fill="#FCFCFC" transform="translate(418,104)"/>
<path d="M0 0 C0.495 0.99 0.495 0.99 1 2 C0.109375 4.46875 0.109375 4.46875 -1.25 7.5 C-3.597517 12.91432891 -5.45167425 18.31021758 -7 24 C-5.845 23.95875 -4.69 23.9175 -3.5 23.875 C0.87343225 23.88267269 4.82456661 24.75641424 9 26 C9.89976562 26.26425781 10.79953125 26.52851562 11.7265625 26.80078125 C14.15449845 27.52232278 16.57767358 28.25984471 19 29 C19.99 25.37 20.98 21.74 22 18 C20.02 16.35 18.04 14.7 16 13 C16.33 12.34 16.66 11.68 17 11 C18.98 12.65 20.96 14.3 23 16 C24.04800781 14.39318359 24.04800781 14.39318359 25.1171875 12.75390625 C26.03621435 11.35661033 26.95549853 9.95948364 27.875 8.5625 C28.33519531 7.85544922 28.79539062 7.14839844 29.26953125 6.41992188 C29.71425781 5.74638672 30.15898438 5.07285156 30.6171875 4.37890625 C31.02565918 3.7557251 31.43413086 3.13254395 31.85498047 2.49047852 C33 1 33 1 35 0 C33.68969178 3.51911349 32.12632826 6.57690959 30.125 9.75 C27.30770073 14.3513592 25.08674749 19.03461111 23 24 C22.67 24.66 22.34 25.32 22 26 C21.24616662 28.78444577 21.24616662 28.78444577 22 32 C24.42585373 34.65327751 27.15337108 36.81537781 30 39 C31 40 31 40 31.11352539 41.85766602 C31.10567017 43.04380493 31.10567017 43.04380493 31.09765625 44.25390625 C31.09282227 45.53491211 31.09282227 45.53491211 31.08789062 46.84179688 C31.07532227 48.18854492 31.07532227 48.18854492 31.0625 49.5625 C31.05798828 50.46419922 31.05347656 51.36589844 31.04882812 52.29492188 C31.03700225 54.53001314 31.0205222 56.76497437 31 59 C27.41011436 55.52833651 24.77539738 51.4940394 21.9375 47.3984375 C20.15631025 44.75251546 20.15631025 44.75251546 17 44 C16.54625 43.236875 16.0925 42.47375 15.625 41.6875 C12.63997492 36.75072774 8.06632502 34.32627606 3 31.8125 C1.989375 31.30332031 0.97875 30.79414062 -0.0625 30.26953125 C-3.25710788 28.76745415 -3.25710788 28.76745415 -8 28 C-8 31.96 -8 35.92 -8 40 C-8.33 40 -8.66 40 -9 40 C-9.33 35.71 -9.66 31.42 -10 27 C-21.51082852 26.62259579 -31.41235501 28.04716377 -40.66796875 35.30859375 C-43.61435117 38.22196348 -44.36741628 40.89407283 -44.5625 44.875 C-44.05687778 53.33153168 -40.00801552 58.87935912 -33.9609375 64.59375 C-22.82547978 73.64314572 -9.77846184 79.81989973 3.23242188 85.67700195 C15.35562593 91.24122684 26.85840563 99.28422897 32 112 C34.66403279 119.99209836 33.99552493 129.01115986 30.4375 136.5625 C25.33398274 145.46676313 18.07976721 150.19762003 8.36328125 153.078125 C-9.62498609 157.36055083 -27.87203198 152.84020582 -43.5390625 143.6328125 C-47.93843583 140.71386321 -52.12866895 137.59386364 -56 134 C-57.37091797 132.75863281 -57.37091797 132.75863281 -58.76953125 131.4921875 C-62.37966794 127.03837756 -61.53004516 121.56028224 -61.3125 116.125 C-61.28994141 115.05507812 -61.26738281 113.98515625 -61.24414062 112.8828125 C-61.18545633 110.25375593 -61.1034118 107.62761418 -61 105 C-60.34 105 -59.68 105 -59 105 C-58.5153125 105.96679688 -58.030625 106.93359375 -57.53125 107.9296875 C-53.41060609 115.99646859 -49.11733108 123.24302403 -43 130 C-42.30132813 130.77988281 -41.60265625 131.55976563 -40.8828125 132.36328125 C-35.53747965 138.02248595 -29.79851327 142.22956017 -23 146 C-21.90171875 146.65355469 -21.90171875 146.65355469 -20.78125 147.3203125 C-15.00236312 150.23010413 -9.28738989 150.37768851 -2.9375 150.4375 C-2.09840088 150.44773193 -1.25930176 150.45796387 -0.39477539 150.46850586 C7.30505063 150.36065248 14.64655498 148.96818465 20.4375 143.5625 C21.07558594 142.98628906 21.71367188 142.41007813 22.37109375 141.81640625 C25.62427251 138.18876087 26.4684481 135.05344311 26.3046875 130.140625 C25.19976646 122.37784642 19.83380048 116.8069789 14 112 C5.21641688 105.64140103 -4.17301536 100.76245194 -13.8984375 96.02685547 C-42.99639474 81.80915006 -42.99639474 81.80915006 -50 67 C-52.56561296 59.30316113 -51.70967001 49.58707602 -49 42 C-44.49392902 33.65542411 -36.88047992 28.15176058 -27.9140625 25.34765625 C-21.70362323 23.8118617 -15.36795967 23.4094458 -9 23 C-8.52820313 21.38931641 -8.52820313 21.38931641 -8.046875 19.74609375 C-7.61503599 18.30975966 -7.18271868 16.87356932 -6.75 15.4375 C-6.54503906 14.73302734 -6.34007812 14.02855469 -6.12890625 13.30273438 C-4.64351588 8.41895088 -2.67525788 4.35015223 0 0 Z " fill="#050505" transform="translate(566,61)"/>
<path d="M0 0 C1.51110352 -0.01836914 1.51110352 -0.01836914 3.05273438 -0.03710938 C16.30014963 -0.06300009 29.8335009 3.93990085 39.6875 13.1875 C41.78959857 16.34064785 41.9309761 17.04853081 41.8828125 20.63671875 C41.87636719 21.48427734 41.86992187 22.33183594 41.86328125 23.20507812 C41.83814453 24.52668945 41.83814453 24.52668945 41.8125 25.875 C41.80347656 26.76767578 41.79445313 27.66035156 41.78515625 28.58007812 C41.76159748 30.78282314 41.72870329 32.98502588 41.6875 35.1875 C39.17324778 32.7432226 37.22980908 30.21386831 35.25 27.3125 C27.41127067 15.84375507 17.02827468 7.00921414 3.22265625 3.57421875 C-8.51900131 1.78311844 -18.80637661 3.68362726 -28.4609375 10.66015625 C-31.54739631 13.20615919 -32.93380771 15.20725491 -33.6875 19.1484375 C-34.26884267 26.05188165 -31.48194896 30.86369947 -27.3125 36.1875 C-17.92285761 46.26862768 -5.63643481 52.1405243 6.53320312 58.12402344 C36.7761443 73.0535624 36.7761443 73.0535624 42.81640625 87.9765625 C44.93085862 95.77064254 45.08042237 105.31298834 41.6875 112.75 C36.24781295 121.80601531 27.49765135 127.0842517 17.41015625 129.80078125 C-1.77169063 132.52531904 -19.86729212 128.1975873 -35.94140625 117.42578125 C-38.16597188 115.75076991 -40.25398189 114.06361777 -42.3125 112.1875 C-42.90442139 111.75107178 -43.49634277 111.31464355 -44.10620117 110.86499023 C-47.27899843 108.25886411 -49.07980663 106.39192329 -49.87426758 102.27978516 C-50.0007619 98.91082805 -49.9241666 95.61658287 -49.75 92.25 C-49.71841797 91.08919922 -49.68683594 89.92839844 -49.65429688 88.73242188 C-49.57217097 85.88147968 -49.45738418 83.0358274 -49.3125 80.1875 C-46.98739652 82.51260348 -46.07505186 84.6444766 -44.6875 87.625 C-36.4685595 104.24155362 -23.33848176 118.63259711 -5.625 125.1875 C5.34844706 127.95784565 18.76672616 127.73374297 28.66796875 122.05078125 C32.33816869 119.6519083 35.10480565 117.37698505 36.6875 113.1875 C37.67539773 106.77171474 36.88924514 102.20003282 33.09375 96.91796875 C31.08462856 94.4456332 29.07578785 92.31042253 26.6875 90.1875 C26.07003906 89.61644531 25.45257813 89.04539062 24.81640625 88.45703125 C14.94842996 79.88882307 2.74546894 74.66957442 -8.89404297 68.9453125 C-21.55534745 62.7008842 -33.89780074 55.98427609 -39.3125 42.1875 C-41.62626985 35.24619045 -41.46964264 25.81163115 -38.5625 19.0625 C-37.85261758 17.7483578 -37.10685222 16.45237443 -36.3125 15.1875 C-35.4771875 13.8571875 -35.4771875 13.8571875 -34.625 12.5 C-24.65711398 2.53211398 -13.61816114 0.00861364 0 0 Z " fill="#050505" transform="translate(110.3125,84.8125)"/>
<path d="M0 0 C0.99 0 1.98 0 3 0 C3.22848633 0.54148682 3.45697266 1.08297363 3.69238281 1.64086914 C11.16710141 19.34728588 18.69023777 37.03299248 26.21826172 54.71679688 C27.08822257 56.76041393 27.95817699 58.80403373 28.828125 60.84765625 C29.47486679 62.36693222 29.47486679 62.36693222 30.13467407 63.91690063 C33.04519802 70.75482594 35.95326735 77.59379041 38.859375 84.43359375 C39.24431122 85.33956299 39.62924744 86.24553223 40.02584839 87.17895508 C41.83218541 91.43052089 43.63819132 95.68222709 45.44384766 99.93408203 C45.77117889 100.70453857 46.09851013 101.47499512 46.4357605 102.26879883 C47.06682156 103.75445801 47.69747191 105.24029174 48.32766724 106.72631836 C49.80571524 110.20801559 51.29422293 113.68451035 52.80566406 117.15185547 C53.22931747 118.12728554 53.22931747 118.12728554 53.66152954 119.12242126 C54.4233612 120.87378973 55.18931015 122.62336559 55.95556641 124.37280273 C57 127 57 127 57 129 C51.72 129 46.44 129 41 129 C40.28972656 127.29070312 39.57945312 125.58140625 38.84765625 123.8203125 C35.60735498 116.0431329 32.31396547 108.28869458 29.01757812 100.53515625 C26.26845966 94.05261956 23.58219585 87.55090457 21 81 C10.85057197 80.05586716 1.07729456 84.06761787 -6.86328125 90.1796875 C-15.75299873 97.75301171 -19.84285223 108.18292683 -24.66796875 118.6015625 C-25.16941406 119.66117187 -25.67085938 120.72078125 -26.1875 121.8125 C-26.61417969 122.74707031 -27.04085938 123.68164062 -27.48046875 124.64453125 C-29.30376812 127.47087962 -30.99059868 128.55154983 -34 130 C-37.05810094 130.52052782 -38.98392341 130.61673486 -41.6796875 128.98046875 C-44.41189986 126.8169226 -45.88759448 125.33721656 -47 122 C-49.66143518 88.36120456 -28.71531513 52.92162772 -13.21728516 24.26123047 C-11.95802972 21.92203596 -10.71680257 19.57403949 -9.48046875 17.22265625 C-9.07393066 16.44978271 -8.66739258 15.67690918 -8.24853516 14.88061523 C-7.48359909 13.42585107 -6.71893058 11.97094618 -5.95458984 10.51586914 C-4.98010344 8.67145203 -3.99145752 6.83532967 -3 5 C-2.48308594 4.01773438 -1.96617187 3.03546875 -1.43359375 2.0234375 C-0.96050781 1.35570313 -0.48742187 0.68796875 0 0 Z M-8 18 C-36.94633489 67.19528213 -36.94633489 67.19528213 -45 122 C-42.88398192 125.28762388 -41.80599123 126.70213368 -38.125 128.0625 C-33.85065221 127.97701304 -32.28471946 126.72606512 -29 124 C-27.32087892 121.2569064 -26.17160164 118.36394866 -25 115.375 C-24.3211207 113.7506258 -23.63754368 112.12820672 -22.94921875 110.5078125 C-22.61970215 109.72954102 -22.29018555 108.95126953 -21.95068359 108.14941406 C-16.3569844 95.50253997 -7.89735831 86.40305273 5.0625 81.1875 C9.59463737 79.66108367 14.29686689 78.81919327 19 78 C18.40373334 73.08733284 16.87702854 68.8869013 14.90234375 64.390625 C14.59214798 63.66992828 14.28195221 62.94923157 13.96235657 62.20669556 C12.96087178 59.88478436 11.94973374 57.56724308 10.9375 55.25 C10.24866089 53.6630805 9.56018476 52.07600339 8.87207031 50.48876953 C7.52574685 47.38636156 6.17520841 44.28583663 4.82177734 41.18652344 C3.30474081 37.70841103 1.81232297 34.22049936 0.33203125 30.7265625 C-0.36158388 29.10920542 -1.05554687 27.49199744 -1.75 25.875 C-2.047854 25.16118164 -2.34570801 24.44736328 -2.65258789 23.71191406 C-3.53191406 21.62274491 -3.53191406 21.62274491 -5 19 C-5.99 18.67 -6.98 18.34 -8 18 Z " fill="#060606" transform="translate(426,86)"/>
<path d="M0 0 C24.09 0 48.18 0 73 0 C73 4.62 73 9.24 73 14 C69 12 69 12 65.9375 9.625 C54.62137554 1.41716723 41.3395814 1.85257612 28 1.9375 C26.63932456 1.94252513 25.27864733 1.94708624 23.91796875 1.95117188 C20.61193275 1.96289541 17.30598999 1.97930573 14 2 C13.87480356 6.88882486 13.78492443 11.77668253 13.7253418 16.66674805 C13.70046085 18.3241403 13.6665427 19.98142594 13.62280273 21.63842773 C13.33656219 32.77486858 13.43333162 43.3471355 20.30224609 52.7902832 C28.07945927 60.28376654 41.89411618 60.00348013 52 61 C52 65.62 52 70.24 52 75 C49.093832 73.546916 46.43637283 72.07464849 43.6875 70.375 C40.59954195 68.48740546 37.49620459 66.72118495 34.2578125 65.109375 C25.12513973 60.54076906 18.71245513 56.42491027 14 47 C13.67 74.06 13.34 101.12 13 129 C8.71 129 4.42 129 0 129 C0 86.43 0 43.86 0 0 Z " fill="#000000" transform="translate(288,86)"/>
<path d="M0 0 C4.62 0 9.24 0 14 0 C14.02311873 16.67185504 14.04097909 33.3437035 14.05181217 50.01557064 C14.05697517 57.75607282 14.06401793 65.49656487 14.07543945 73.23706055 C14.08538619 79.98127151 14.0918534 86.72547515 14.09408849 93.46969324 C14.09539562 97.04286866 14.09848158 100.6160231 14.10573006 104.18919182 C14.11374372 108.17162351 14.11399114 112.15403441 14.11352539 116.13647461 C14.11712067 117.32977386 14.12071594 118.52307312 14.12442017 119.75253296 C14.1230455 120.83091934 14.12167084 121.90930573 14.12025452 123.02037048 C14.12117631 123.96336471 14.1220981 124.90635893 14.12304783 125.87792873 C14 128 14 128 13 129 C8.71 129 4.42 129 0 129 C0 86.43 0 43.86 0 0 Z " fill="#060606" transform="translate(363,86)"/>
<path d="M0 0 C8.43450634 0.89728791 16.31738327 4.213627 22.6875 9.9375 C25.36136819 13.47856869 25.91843669 15.5955815 26 20 C25.5625 22.4375 25.5625 22.4375 25 24 C24.34 24 23.68 24 23 24 C23.33 27.3 23.66 30.6 24 34 C24.33 34 24.66 34 25 34 C25 31.69 25 29.38 25 27 C26.5753545 29.9710633 27.69034664 32.93674473 28.75 36.125 C32.48360496 46.4095089 37.97719915 53.61902322 46 61 C45.01 61.495 45.01 61.495 44 62 C44 62.99 44 63.98 44 65 C39.94612087 65.60808187 37.49271018 65.01529435 34.1875 62.75 C27.18397674 57.09330814 21.67812791 49.16846072 18 41 C18 40.34 18 39.68 18 39 C17.195625 38.71125 16.39125 38.4225 15.5625 38.125 C13 37 13 37 12 35 C13.65 35.66 15.3 36.32 17 37 C15.70224692 33.10674077 14.37109499 30.43467972 11 28 C7.80045046 28.14349347 7.80045046 28.14349347 5 29 C-0.04277005 22.10821427 -1.39696356 16.00006173 -0.625 7.5625 C-0.56828125 6.83095703 -0.5115625 6.09941406 -0.453125 5.34570312 C-0.3132963 3.56288714 -0.15824062 1.78127618 0 0 Z " fill="#323232" transform="translate(558,89)"/>
<path d="M0 0 C0.66 0 1.32 0 2 0 C2.4846875 0.96679688 2.969375 1.93359375 3.46875 2.9296875 C7.58939391 10.99646859 11.88266892 18.24302403 18 25 C19.04800781 26.16982422 19.04800781 26.16982422 20.1171875 27.36328125 C25.46252035 33.02248595 31.20148673 37.22956017 38 41 C38.7321875 41.43570313 39.464375 41.87140625 40.21875 42.3203125 C45.99763688 45.23010413 51.71261011 45.37768851 58.0625 45.4375 C59.32114868 45.4528479 59.32114868 45.4528479 60.60522461 45.46850586 C69.13213247 45.34906734 76.00541025 43.44605598 82.5625 37.8125 C83.40941406 37.09707031 84.25632812 36.38164062 85.12890625 35.64453125 C85.74636719 35.10183594 86.36382813 34.55914062 87 34 C87.66 34.66 88.32 35.32 89 36 C77.14945214 47.22019957 65.56247816 49.79257189 49.546875 49.4453125 C33.11829395 48.53768763 16.89638943 40.04374719 5 29 C4.08605469 28.17242187 3.17210937 27.34484375 2.23046875 26.4921875 C-1.37966794 22.03837756 -0.53004516 16.56028224 -0.3125 11.125 C-0.28994141 10.05507812 -0.26738281 8.98515625 -0.24414062 7.8828125 C-0.18545633 5.25375593 -0.1034118 2.62761418 0 0 Z " fill="#101010" transform="translate(505,166)"/>
<path d="M0 0 C2.32510348 2.32510348 3.23744814 4.4569766 4.625 7.4375 C12.8439405 24.05405362 25.97401824 38.44509711 43.6875 45 C53.8894355 47.5755706 66.43694711 47.451766 76 43 C77.34175973 42.01133494 78.67896002 41.0161846 80 40 C81.485 40.495 81.485 40.495 83 41 C80.55506983 43.80592657 78.00420037 45.11593244 74.625 46.625 C73.68914062 47.05039063 72.75328125 47.47578125 71.7890625 47.9140625 C57.6031625 53.43742413 39.76777302 50.30783786 26.27734375 44.421875 C19.206333 41.15436712 12.76549363 37.25462711 7 32 C6.40807861 31.56357178 5.81615723 31.12714355 5.20629883 30.67749023 C2.03350157 28.07136411 0.23269337 26.20442329 -0.56176758 22.09228516 C-0.6882619 18.72332805 -0.6116666 15.42908287 -0.4375 12.0625 C-0.40591797 10.90169922 -0.37433594 9.74089844 -0.34179688 8.54492188 C-0.25967097 5.69397968 -0.14488418 2.8483274 0 0 Z " fill="#0C0C0C" transform="translate(61,165)"/>
<path d="M0 0 C0.495 0.99 0.495 0.99 1 2 C0.109375 4.46875 0.109375 4.46875 -1.25 7.5 C-3.597517 12.91432891 -5.45167425 18.31021758 -7 24 C-5.845 23.95875 -4.69 23.9175 -3.5 23.875 C0.87343225 23.88267269 4.82456661 24.75641424 9 26 C9.89976562 26.26425781 10.79953125 26.52851562 11.7265625 26.80078125 C14.15449845 27.52232278 16.57767358 28.25984471 19 29 C19.99 25.37 20.98 21.74 22 18 C20.02 16.35 18.04 14.7 16 13 C16.33 12.34 16.66 11.68 17 11 C18.98 12.65 20.96 14.3 23 16 C24.04800781 14.39318359 24.04800781 14.39318359 25.1171875 12.75390625 C26.03621435 11.35661033 26.95549853 9.95948364 27.875 8.5625 C28.33519531 7.85544922 28.79539062 7.14839844 29.26953125 6.41992188 C29.71425781 5.74638672 30.15898438 5.07285156 30.6171875 4.37890625 C31.02565918 3.7557251 31.43413086 3.13254395 31.85498047 2.49047852 C33 1 33 1 35 0 C33.68969178 3.51911349 32.12632826 6.57690959 30.125 9.75 C27.30770073 14.3513592 25.08674749 19.03461111 23 24 C22.67 24.66 22.34 25.32 22 26 C21.24616662 28.78444577 21.24616662 28.78444577 22 32 C24.42585373 34.65327751 27.15337108 36.81537781 30 39 C31 40 31 40 31.11352539 41.85766602 C31.10567017 43.04380493 31.10567017 43.04380493 31.09765625 44.25390625 C31.09282227 45.53491211 31.09282227 45.53491211 31.08789062 46.84179688 C31.07532227 48.18854492 31.07532227 48.18854492 31.0625 49.5625 C31.05798828 50.46419922 31.05347656 51.36589844 31.04882812 52.29492188 C31.03700225 54.53001314 31.0205222 56.76497437 31 59 C27.41011436 55.52833651 24.77539738 51.4940394 21.9375 47.3984375 C20.15631025 44.75251546 20.15631025 44.75251546 17 44 C16.54625 43.236875 16.0925 42.47375 15.625 41.6875 C12.63997492 36.75072774 8.06632502 34.32627606 3 31.8125 C1.989375 31.30332031 0.97875 30.79414062 -0.0625 30.26953125 C-3.25710788 28.76745415 -3.25710788 28.76745415 -8 28 C-8 31.96 -8 35.92 -8 40 C-8.33 40 -8.66 40 -9 40 C-9.33 35.71 -9.66 31.42 -10 27 C-20.49142933 26.65601871 -30.32992467 27.57188355 -39 34 C-40.83051375 35.90541969 -42.37328208 37.90850554 -44 40 C-46.3125 41.375 -46.3125 41.375 -48 42 C-46.4868711 35.75834327 -41.19833356 32.03587441 -36.01171875 28.734375 C-27.54769627 24.18856734 -18.43717118 23.60678935 -9 23 C-8.52820313 21.38931641 -8.52820313 21.38931641 -8.046875 19.74609375 C-7.61503599 18.30975966 -7.18271868 16.87356932 -6.75 15.4375 C-6.54503906 14.73302734 -6.34007812 14.02855469 -6.12890625 13.30273438 C-4.64351588 8.41895088 -2.67525788 4.35015223 0 0 Z " fill="#111111" transform="translate(566,61)"/>
<path d="M0 0 C2.64146239 1.1607989 3.4671494 2.51300435 5 4.94140625 C5.51433594 5.7509375 6.02867187 6.56046875 6.55859375 7.39453125 C7.8519283 9.62369324 8.9780937 11.85576191 10.0625 14.19140625 C11.72921755 17.71472057 13.71843154 19.69119394 17 21.87890625 C16.57811541 23.69510445 16.13700835 25.50684698 15.6875 27.31640625 C15.44386719 28.32574219 15.20023438 29.33507812 14.94921875 30.375 C14.63597656 31.20128906 14.32273437 32.02757812 14 32.87890625 C10.40258189 34.07804562 9.97930233 33.63208702 6.6875 32.06640625 C0.32602145 29.34275099 -6.16600977 28.62729711 -13 27.87890625 C-12.1024902 21.44159456 -10.29474729 15.45914872 -8.0625 9.37890625 C-7.80968262 8.6725 -7.55686523 7.96609375 -7.29638672 7.23828125 C-4.460742 -0.27008399 -4.460742 -0.27008399 0 0 Z " fill="#EEEEEE" transform="translate(572,57.12109375)"/>
<path d="M0 0 C8.38073545 0.38094252 16.7371812 4.43713242 22.75 10.25 C25 13 25 13 25 15 C22.525 14.505 22.525 14.505 20 14 C19.67 14.99 19.34 15.98 19 17 C19.99 17 20.98 17 22 17 C22 21.95 22 26.9 22 32 C17 32 17 32 15.19140625 30.46875 C14.65386719 29.8190625 14.11632812 29.169375 13.5625 28.5 C10.74435996 25.37390835 10.74435996 25.37390835 6.5625 24.5625 C5.716875 24.706875 4.87125 24.85125 4 25 C3.516941 23.60550891 3.03874483 22.20933293 2.5625 20.8125 C2.16224609 19.64654297 2.16224609 19.64654297 1.75390625 18.45703125 C0.37134446 13.95116925 -0.11928688 9.90081107 -0.0625 5.1875 C-0.05347656 4.21167969 -0.04445313 3.23585938 -0.03515625 2.23046875 C-0.02355469 1.49441406 -0.01195312 0.75835937 0 0 Z " fill="#FAFAFA" transform="translate(558,89)"/>
<path d="M0 0 C1.51110352 -0.01836914 1.51110352 -0.01836914 3.05273438 -0.03710938 C16.30014963 -0.06300009 29.8335009 3.93990085 39.6875 13.1875 C41.78959857 16.34064785 41.9309761 17.04853081 41.8828125 20.63671875 C41.87636719 21.48427734 41.86992187 22.33183594 41.86328125 23.20507812 C41.83814453 24.52668945 41.83814453 24.52668945 41.8125 25.875 C41.80347656 26.76767578 41.79445313 27.66035156 41.78515625 28.58007812 C41.76159748 30.78282314 41.72870329 32.98502588 41.6875 35.1875 C39.17324778 32.7432226 37.22980908 30.21386831 35.25 27.3125 C27.41127067 15.84375507 17.02827468 7.00921414 3.22265625 3.57421875 C-8.7499568 1.74788795 -18.5735224 3.8807725 -28.5 10.6875 C-30.55794299 12.24437094 -30.55794299 12.24437094 -32.3125 15.1875 C-33.3025 15.1875 -34.2925 15.1875 -35.3125 15.1875 C-32.30197433 8.16798287 -25.1990463 4.85680799 -18.48828125 1.94921875 C-12.40939363 -0.1789376 -6.36175666 0.00402388 0 0 Z " fill="#090909" transform="translate(110.3125,84.8125)"/>
<path d="M0 0 C2.4375 0.125 2.4375 0.125 5 1 C7.44231503 3.72339892 8.45498618 5.96105933 9.140625 9.52734375 C9.32036865 10.39584961 9.5001123 11.26435547 9.68530273 12.15917969 C9.87165283 13.07602539 10.05800293 13.99287109 10.25 14.9375 C12.24698711 23.99174814 14.92977199 31.16621914 20 39 C20.57621094 39.89589844 21.15242187 40.79179688 21.74609375 41.71484375 C22.75892133 43.25230145 23.78636862 44.78035477 24.8359375 46.29296875 C27.46200008 50.14393972 27.14790001 53.67238061 27.125 58.1875 C27.13080078 59.3022168 27.13080078 59.3022168 27.13671875 60.43945312 C27.12861774 65.06107915 26.76082453 69.44109112 26 74 C27.175625 74.53625 28.35125 75.0725 29.5625 75.625 C38.11079955 79.95191706 44.91902783 86.75708349 48 96 C48.16796875 97.9375 48.16796875 97.9375 48.1875 100 C48.20167969 100.680625 48.21585938 101.36125 48.23046875 102.0625 C48 104 48 104 46 107 C45.01 106.505 45.01 106.505 44 106 C44.99 104.515 44.99 104.515 46 103 C46.76915994 97.48768709 44.8982184 93.55029729 42 89 C39.68743506 86.27073609 39.68743506 86.27073609 37 84 C36.071875 83.154375 35.14375 82.30875 34.1875 81.4375 C30.76905311 78.61705818 27.00521076 76.86449466 23 75 C22.835 75.680625 22.67 76.36125 22.5 77.0625 C19.30979231 83.30999006 13.50043806 87.43834616 6.8984375 89.578125 C4.23029904 90.17104466 1.71620966 90.20371572 -1 90 C-1.48500607 85.92594902 -1.22072727 84.32459892 1.125 80.875 C5.40443153 76.25612347 9.99541486 73.1657527 16.359375 72.90234375 C17.14828125 72.91394531 17.9371875 72.92554687 18.75 72.9375 C19.54921875 72.94652344 20.3484375 72.95554687 21.171875 72.96484375 C21.77515625 72.97644531 22.3784375 72.98804687 23 73 C25.28227455 63.42259789 26.88589272 53.99761229 22 45 C20.9199023 43.42076625 19.81342181 41.85939701 18.6875 40.3125 C10.63926834 29.12308088 7.53858267 17.30515977 5 4 C2.69 3.34 0.38 2.68 -2 2 C-1.34 1.34 -0.68 0.68 0 0 Z " fill="#C6C6C6" transform="translate(621,40)"/>
<path d="M0 0 C0.66 1.32 1.32 2.64 2 4 C1.34 4 0.68 4 0 4 C-0.26039063 4.86109375 -0.52078125 5.7221875 -0.7890625 6.609375 C-2.02882724 10.08071626 -3.57090126 13.03763853 -5.375 16.25 C-30.15277187 59.70752162 -30.15277187 59.70752162 -36 108 C-33.80006338 110.9981456 -33.80006338 110.9981456 -31 113 C-27.49542375 113.07152196 -25.75799229 112.61089676 -23.02734375 110.41015625 C-20.45515829 107.35227873 -19.09649599 104.04068948 -17.625 100.375 C-11.03734289 84.70385118 -3.168641 72.90718062 13.0625 66.125 C17.50633994 64.64372002 22.31352273 63.81707059 27 64 C27.66 64.66 28.32 65.32 29 66 C28.03320312 66.15855469 27.06640625 66.31710938 26.0703125 66.48046875 C12.69325972 68.8144768 1.34617957 73.11004908 -6.87109375 84.62109375 C-10.72329036 90.94418708 -13.72346079 97.60100148 -16.42822266 104.48046875 C-18.47561756 109.48938595 -21.04584731 113.52292365 -26 116 C-28.94827837 116.40203796 -31.08145963 116.54942715 -33.69140625 114.98828125 C-36.40626033 112.80985617 -37.8883354 111.33499379 -39 108 C-41.66884975 74.26748919 -20.60560132 38.78717732 -5.09033203 10.0546875 C-3.32866844 6.73490228 -1.66548844 3.36891511 0 0 Z " fill="#363636" transform="translate(418,100)"/>
<path d="M0 0 C1.9375 0.45703125 1.9375 0.45703125 4.9375 2.14453125 C8.14304273 7.4537114 7.76549609 12.42351878 6.9375 18.45703125 C4.52796549 27.31041264 -0.4185673 34.342595 -6.0625 41.45703125 C-7.0525 41.12703125 -8.0425 40.79703125 -9.0625 40.45703125 C-8.66417969 39.96074219 -8.26585937 39.46445313 -7.85546875 38.953125 C-3.45621992 33.31223903 0.62141885 27.98013859 -0.0625 20.45703125 C-0.60519531 20.20308594 -1.14789063 19.94914062 -1.70703125 19.6875 C-2.42246094 19.34332031 -3.13789063 18.99914062 -3.875 18.64453125 C-4.58269531 18.30808594 -5.29039062 17.97164062 -6.01953125 17.625 C-8.13827177 16.4137124 -9.54909057 15.3709121 -11.0625 13.45703125 C-11.69275284 8.57257172 -11.80887221 6.57658956 -9.0625 2.45703125 C-5.73648341 0.23968686 -3.92206962 -0.31941097 0 0 Z " fill="#060606" transform="translate(496.0625,86.54296875)"/>
<path d="M0 0 C5.53846154 3.07692308 5.53846154 3.07692308 7 6 C7.45063943 9.96562695 7.12904332 11.76416221 5.1875 15.3125 C3 18 3 18 0 19 C-3.92755204 19.36366223 -6.32260965 19.33869517 -9.875 17.5625 C-12.4860565 14.41387305 -12.95903508 12.21521594 -13.2109375 8.19140625 C-12.88957522 4.85280918 -11.42147504 3.21392004 -9 1 C-5.89046621 -0.5547669 -3.43733239 -0.28644437 0 0 Z " fill="#F6F6F6" transform="translate(332,244)"/>
<path d="M0 0 C10.33333333 0 10.33333333 0 14 3 C16.4915904 6.7373856 16.45793285 8.57331583 16 13 C13.86320715 16.38939556 12.8225233 17.72582557 9 19 C6.03 19 3.06 19 0 19 C0 12.73 0 6.46 0 0 Z " fill="#F4F4F4" transform="translate(548,244)"/>
<path d="M0 0 C1.56826607 2.3523991 2.66542568 4.39441183 3.8125 6.9375 C6.49271977 12.25895452 9.63804856 14.69410823 15.25 16.625 C22.65394652 18.6841523 30.37515106 19.24812974 38 20 C38 24.62 38 29.24 38 34 C35.093832 32.546916 32.43637283 31.07464849 29.6875 29.375 C26.59954195 27.48740546 23.49620459 25.72118495 20.2578125 24.109375 C10.76926426 19.36451131 2.83194142 14.53783891 -1 4 C-0.6875 1.625 -0.6875 1.625 0 0 Z " fill="#101010" transform="translate(302,127)"/>
<path d="M0 0 C9 0 9 0 11.5625 1.5 C12.036875 1.995 12.51125 2.49 13 3 C12.79375 4.11375 12.5875 5.2275 12.375 6.375 C12.25125 7.57125 12.1275 8.7675 12 10 C12.66 10.66 13.32 11.32 14 12 C13.8125 14.5 13.8125 14.5 13 17 C8.61501596 19.92332269 5.2225328 19.1356502 0 19 C0 12.73 0 6.46 0 0 Z " fill="#060606" transform="translate(414,244)"/>
<path d="M0 0 C2.4375 0.125 2.4375 0.125 5 1 C7.44231503 3.72339892 8.45498618 5.96105933 9.140625 9.52734375 C9.32036865 10.39584961 9.5001123 11.26435547 9.68530273 12.15917969 C9.87165283 13.07602539 10.05800293 13.99287109 10.25 14.9375 C12.24698711 23.99174814 14.92977199 31.16621914 20 39 C20.57621094 39.89589844 21.15242187 40.79179688 21.74609375 41.71484375 C22.75892133 43.25230145 23.78636862 44.78035477 24.8359375 46.29296875 C27.46200008 50.14393972 27.14790001 53.67238061 27.125 58.1875 C27.13080078 59.3022168 27.13080078 59.3022168 27.13671875 60.43945312 C27.12861774 65.06107915 26.76082453 69.44109112 26 74 C27.175625 74.53625 28.35125 75.0725 29.5625 75.625 C38.11079955 79.95191706 44.91902783 86.75708349 48 96 C48.16796875 97.9375 48.16796875 97.9375 48.1875 100 C48.20167969 100.680625 48.21585938 101.36125 48.23046875 102.0625 C48 104 48 104 46 107 C45.01 106.505 45.01 106.505 44 106 C44.99 104.515 44.99 104.515 46 103 C46.76915994 97.48768709 44.8982184 93.55029729 42 89 C39.68743506 86.27073609 39.68743506 86.27073609 37 84 C36.071875 83.154375 35.14375 82.30875 34.1875 81.4375 C30.76905311 78.61705818 27.00521076 76.86449466 23 75 C22.6596875 76.0828125 22.6596875 76.0828125 22.3125 77.1875 C20.75168987 80.53209313 18.6968713 82.51603959 16 85 C15.34 84.67 14.68 84.34 14 84 C14.49371094 83.44570312 14.98742187 82.89140625 15.49609375 82.3203125 C16.45708984 81.23363281 16.45708984 81.23363281 17.4375 80.125 C18.07558594 79.40570313 18.71367188 78.68640625 19.37109375 77.9453125 C21.05014465 76.09249509 21.05014465 76.09249509 22 74 C19.36 74 16.72 74 14 74 C14 73.67 14 73.34 14 73 C16.97 73 19.94 73 23 73 C25.20388037 63.3580234 26.91703308 54.05495881 22 45 C20.9199023 43.42076625 19.81342181 41.85939701 18.6875 40.3125 C10.63926834 29.12308088 7.53858267 17.30515977 5 4 C2.69 3.34 0.38 2.68 -2 2 C-1.34 1.34 -0.68 0.68 0 0 Z " fill="#333333" transform="translate(621,40)"/>
<path d="M0 0 C19.14 0 38.28 0 58 0 C58 4.62 58 9.24 58 14 C54 12 54 12 50.9375 9.625 C39.87891842 1.60396873 26.56650182 1.84250844 13.5 1.4375 C11.5509375 1.37272461 11.5509375 1.37272461 9.5625 1.30664062 C6.37509155 1.2011749 3.18761302 1.09905552 0 1 C0 0.67 0 0.34 0 0 Z " fill="#080808" transform="translate(303,86)"/>
<path d="M0 0 C3.36316498 0.27929398 4.68140335 0.65016839 6.9921875 3.1875 C7.61351562 4.115625 8.23484375 5.04375 8.875 6 C11.9517923 10.49550298 15.16256605 14.74831377 18.65234375 18.9296875 C20.18682496 21.28700646 20.48478841 23.26293842 21 26 C22.96758273 27.36020151 22.96758273 27.36020151 25 28 C25 28.66 25 29.32 25 30 C19.018561 29.70822249 15.92760328 27.22709373 12 23 C0 7.83940043 0 7.83940043 0 0 Z " fill="#F4F4F4" transform="translate(576,123)"/>
<path d="M0 0 C1.5675 -0.061875 3.135 -0.12375 4.75 -0.1875 C6.07257813 -0.23970703 6.07257813 -0.23970703 7.421875 -0.29296875 C10.49900223 0.0567048 11.80697232 0.84226242 14 3 C14.52979878 6.5572204 14.43204232 8.31593299 12.5 11.375 C12.005 11.91125 11.51 12.4475 11 13 C11.99 14.98 12.98 16.96 14 19 C13.01 19 12.02 19 11 19 C10.0409375 17.5459375 10.0409375 17.5459375 9.0625 16.0625 C7.34877692 12.88931021 7.34877692 12.88931021 4.75 12.125 C3.88375 12.063125 3.88375 12.063125 3 12 C3 14.31 3 16.62 3 19 C2.01 19 1.02 19 0 19 C0 12.73 0 6.46 0 0 Z " fill="#2C2C2C" transform="translate(446,244)"/>
<path d="M0 0 C0 0.33 0 0.66 0 1 C-0.96679688 1.15855469 -1.93359375 1.31710938 -2.9296875 1.48046875 C-16.30674028 3.8144768 -27.65382043 8.11004908 -35.87109375 19.62109375 C-39.72329036 25.94418708 -42.72346079 32.60100148 -45.42822266 39.48046875 C-47.47561756 44.48938595 -50.04584731 48.52292365 -55 51 C-57.94827837 51.40203796 -60.08145963 51.54942715 -62.69140625 49.98828125 C-65.40626033 47.80985617 -66.8883354 46.33499379 -68 43 C-68.068991 40.93854893 -68.08467727 38.87498599 -68.0625 36.8125 C-68.05347656 35.72582031 -68.04445313 34.63914063 -68.03515625 33.51953125 C-68.02355469 32.68808594 -68.01195312 31.85664063 -68 31 C-67.67 31 -67.34 31 -67 31 C-66.97421875 31.65226562 -66.9484375 32.30453125 -66.921875 32.9765625 C-66.55475098 38.63360985 -66.06578829 42.71443937 -62 47 C-58.61139972 48.22566393 -56.90638745 48.35908001 -53.5546875 47.03125 C-49.89438917 44.12092105 -48.76463045 40.70930115 -47.0625 36.4375 C-46.37313025 34.80272281 -45.67913725 33.16988727 -44.98046875 31.5390625 C-44.64450684 30.7543457 -44.30854492 29.96962891 -43.96240234 29.16113281 C-42.03932374 24.84274322 -39.69179342 20.87737556 -37 17 C-36.34837891 16.05640625 -36.34837891 16.05640625 -35.68359375 15.09375 C-29.18103444 6.64598064 -19.05050356 1.69212085 -8.875 -0.75 C-5.72721731 -1.02372023 -3.08027267 -0.66005843 0 0 Z " fill="#363636" transform="translate(447,165)"/>
<path d="M0 0 C3 1 3 1 3.9831543 2.67407227 C4.3994812 3.73452759 4.3994812 3.73452759 4.82421875 4.81640625 C5.13037109 5.58017578 5.43652344 6.34394531 5.75195312 7.13085938 C6.06068359 7.93330078 6.36941406 8.73574219 6.6875 9.5625 C7.00783203 10.36880859 7.32816406 11.17511719 7.65820312 12.00585938 C8.44877255 13.99998225 9.225685 15.99950948 10 18 C9.01 18.33 8.02 18.66 7 19 C6.67 17.68 6.34 16.36 6 15 C2.7 15.33 -0.6 15.66 -4 16 C-4.33 16.99 -4.66 17.98 -5 19 C-5.99 19 -6.98 19 -8 19 C-6.00386732 12.2813095 -3.2708579 6.19265192 0 0 Z " fill="#353535" transform="translate(485,244)"/>
<path d="M0 0 C0.33 0 0.66 0 1 0 C1 42.24 1 84.48 1 128 C0.67 128 0.34 128 0 128 C-0.33 109.19 -0.66 90.38 -1 71 C-1.33 71 -1.66 71 -2 71 C-2 67.04 -2 63.08 -2 59 C-1.34 59 -0.68 59 0 59 C0 39.53 0 20.06 0 0 Z " fill="#9B9B9B" transform="translate(287,86)"/>
<path d="M0 0 C0.99 0 1.98 0 3 0 C4.17094005 2.7899439 5.33690927 5.58178597 6.5 8.375 C6.83386719 9.1690625 7.16773438 9.963125 7.51171875 10.78125 C7.82753906 11.54179687 8.14335937 12.30234375 8.46875 13.0859375 C8.76201172 13.7876709 9.05527344 14.4894043 9.35742188 15.21240234 C10 17 10 17 10 19 C9.01 18.67 8.02 18.34 7 18 C7 17.01 7 16.02 7 15 C3.37 15 -0.26 15 -4 15 C-4.33 16.32 -4.66 17.64 -5 19 C-5.66 19 -6.32 19 -7 19 C-6.33392561 14.59041892 -4.73375271 10.73427814 -2.9375 6.6875 C-2.65583984 6.04232422 -2.37417969 5.39714844 -2.08398438 4.73242188 C-1.3937257 3.15301642 -0.69746802 1.57623507 0 0 Z " fill="#191919" transform="translate(203,244)"/>
<path d="M0 0 C5.53846154 3.07692308 5.53846154 3.07692308 7 6 C7.45063943 9.96562695 7.12904332 11.76416221 5.1875 15.3125 C3 18 3 18 0 19 C-3.92755204 19.36366223 -6.32260965 19.33869517 -9.875 17.5625 C-12.4860565 14.41387305 -12.95903508 12.21521594 -13.2109375 8.19140625 C-12.88957522 4.85280918 -11.42147504 3.21392004 -9 1 C-5.89046621 -0.5547669 -3.43733239 -0.28644437 0 0 Z M-9 4 C-10.52491998 7.04983996 -10.23562548 9.6423369 -10 13 C-8.39746471 15.67089215 -7.10023864 15.96731349 -4.125 16.9375 C-0.92149994 17.25177508 -0.92149994 17.25177508 1.875 15.5 C4.28764001 13.08683893 4.28764001 13.08683893 4.625 9.5 C4.30473311 5.89115639 4.30473311 5.89115639 1.75 3.5625 C-2.31571022 1.25243737 -5.15122573 1.61110562 -9 4 Z " fill="#191919" transform="translate(332,244)"/>
<path d="M0 0 C5.66334165 2.83167083 7.50414316 6.75621475 11 12 C11.33 8.04 11.66 4.08 12 0 C12.99 0 13.98 0 15 0 C15 6.27 15 12.54 15 19 C9.95425077 17.73856269 9.46529723 16.23672061 6.75 11.9375 C6.04359375 10.83277344 5.3371875 9.72804687 4.609375 8.58984375 C4.07828125 7.73519531 3.5471875 6.88054687 3 6 C2.67 10.29 2.34 14.58 2 19 C1.34 19 0.68 19 0 19 C0 12.73 0 6.46 0 0 Z " fill="#292929" transform="translate(513,244)"/>
<path d="M0 0 C5.66334165 2.83167083 7.50414316 6.75621475 11 12 C11.33 8.04 11.66 4.08 12 0 C12.99 0 13.98 0 15 0 C15 6.27 15 12.54 15 19 C9.95425077 17.73856269 9.46529723 16.23672061 6.75 11.9375 C6.04359375 10.83277344 5.3371875 9.72804687 4.609375 8.58984375 C4.07828125 7.73519531 3.5471875 6.88054687 3 6 C2.67 10.29 2.34 14.58 2 19 C1.34 19 0.68 19 0 19 C0 12.73 0 6.46 0 0 Z " fill="#292929" transform="translate(358,244)"/>
<path d="M0 0 C10.33333333 0 10.33333333 0 14 3 C16.4915904 6.7373856 16.45793285 8.57331583 16 13 C13.86320715 16.38939556 12.8225233 17.72582557 9 19 C6.03 19 3.06 19 0 19 C0 12.73 0 6.46 0 0 Z M2 2 C2 6.95 2 11.9 2 17 C8.48340918 17.611447 8.48340918 17.611447 11.4375 15.5 C13.79893062 11.72171101 13.56153595 9.42209561 13 5 C11.55851025 2.81452316 11.55851025 2.81452316 9 2 C6.69 2 4.38 2 2 2 Z " fill="#0E0E0E" transform="translate(548,244)"/>
<path d="M0 0 C2.375 1.3125 2.375 1.3125 4 3 C4 3.99 4 4.98 4 6 C3.01 6 2.02 6 1 6 C1 5.01 1 4.02 1 3 C-1.64 3 -4.28 3 -7 3 C-7 4.32 -7 5.64 -7 7 C-5.93458984 7.30744141 -5.93458984 7.30744141 -4.84765625 7.62109375 C-3.46900391 8.02521484 -3.46900391 8.02521484 -2.0625 8.4375 C-1.14597656 8.70433594 -0.22945312 8.97117188 0.71484375 9.24609375 C3 10 3 10 4 11 C4.3125 13.375 4.3125 13.375 4 16 C1.76218351 18.49602608 0.31953394 18.9534013 -3 19.4375 C-6.65146525 18.90499465 -7.78728121 17.89355535 -10 15 C-10 14.34 -10 13.68 -10 13 C-9.01 13 -8.02 13 -7 13 C-7 13.99 -7 14.98 -7 16 C-4.69 16 -2.38 16 0 16 C0 14.68 0 13.36 0 12 C-0.55429688 11.80664062 -1.10859375 11.61328125 -1.6796875 11.4140625 C-2.40414062 11.15367187 -3.12859375 10.89328125 -3.875 10.625 C-4.95394531 10.24214844 -4.95394531 10.24214844 -6.0546875 9.8515625 C-8 9 -8 9 -10 7 C-9.8125 4.5 -9.8125 4.5 -9 2 C-5.51131349 -0.32579101 -4.10281481 -0.41865457 0 0 Z " fill="#262626" transform="translate(240,244)"/>
<path d="M0 0 C0.66 0 1.32 0 2 0 C2 2.64 2 5.28 2 8 C5.63 8 9.26 8 13 8 C13 5.36 13 2.72 13 0 C13.66 0 14.32 0 15 0 C15 6.27 15 12.54 15 19 C14.34 19 13.68 19 13 19 C13 16.03 13 13.06 13 10 C9.37 10 5.74 10 2 10 C2 12.97 2 15.94 2 19 C1.34 19 0.68 19 0 19 C0 12.73 0 6.46 0 0 Z " fill="#111111" transform="translate(263,244)"/>
<path d="M0 0 C2.4375 0.6875 2.4375 0.6875 5 2 C6.21537818 5.29888363 6.10272046 7.69183862 5 11 C4.34 11 3.68 11 3 11 C3.33 14.3 3.66 17.6 4 21 C4.33 21 4.66 21 5 21 C5 18.69 5 16.38 5 14 C7.80041057 19.00073317 9.34821126 24.25451416 9 30 C6.97257144 28.04248277 5.10934257 26.1487059 3.4375 23.875 C1.96201629 21.74152736 1.96201629 21.74152736 -1 20 C-0.34 19.67 0.32 19.34 1 19 C1.31241371 16.45058627 1.51303421 13.99638487 1.625 11.4375 C1.66367187 10.72658203 1.70234375 10.01566406 1.7421875 9.28320312 C1.83671783 7.52257575 1.91945817 5.76132272 2 4 C1.01 4 0.02 4 -1 4 C-0.67 2.68 -0.34 1.36 0 0 Z " fill="#292929" transform="translate(578,102)"/>
<path d="M0 0 C3.63 0 7.26 0 11 0 C11 0.66 11 1.32 11 2 C8.36 2 5.72 2 3 2 C3 4.31 3 6.62 3 9 C5.31 9 7.62 9 10 9 C10 9.66 10 10.32 10 11 C7.69 11 5.38 11 3 11 C3 13.64 3 16.28 3 19 C2.01 19 1.02 19 0 19 C0 12.73 0 6.46 0 0 Z " fill="#2F2F2F" transform="translate(168,244)"/>
<path d="M0 0 C0.61875 0.825 1.2375 1.65 1.875 2.5 C2.57625 3.325 3.2775 4.15 4 5 C4.66 5 5.32 5 6 5 C6.99 8.3 7.98 11.6 9 15 C8.01 14.67 7.02 14.34 6 14 C6 13.01 6 12.02 6 11 C2.7 11 -0.6 11 -4 11 C-3.5247412 9.35303396 -3.04468109 7.70745272 -2.5625 6.0625 C-2.29566406 5.14597656 -2.02882812 4.22945312 -1.75390625 3.28515625 C-1 1 -1 1 0 0 Z " fill="#373737" transform="translate(204,248)"/>
<path d="M0 0 C0.66 0.66 1.32 1.32 2 2 C-5.10736231 8.72931112 -11.81509197 13.93071491 -22 14 C-26.01432292 13.78247511 -30.00350633 13.43295348 -34 13 C-34 12.67 -34 12.34 -34 12 C-32.53240234 11.94392578 -32.53240234 11.94392578 -31.03515625 11.88671875 C-17.65233074 11.21560361 -10.21395832 8.9771951 0 0 Z " fill="#242424" transform="translate(592,200)"/>
<path d="M0 0 C5.625 -0.25 5.625 -0.25 9 2 C8.625 4.4375 8.625 4.4375 8 7 C5.29120665 8.35439668 2.99066732 8.06501451 0 8 C0 5.36 0 2.72 0 0 Z " fill="#F1F1F1" transform="translate(449,246)"/>
<path d="M0 0 C2.05149742 2.67115793 3.89776308 5.39872857 5.6875 8.25 C8.89147329 13.11648839 12.74985507 17.04110866 17 21 C16.34 21.33 15.68 21.66 15 22 C15 22.99 15 23.98 15 25 C13.35 25 11.7 25 10 25 C11.32 24.67 12.64 24.34 14 24 C13.18437076 21.81846156 13.18437076 21.81846156 11 21.1875 C10.34 20.795625 9.68 20.40375 9 20 C8.87753906 19.25363281 8.75507812 18.50726563 8.62890625 17.73828125 C7.62906112 13.38491828 4.62714908 10.77570371 1.71484375 7.5 C-0.21188963 4.69109485 -0.37456508 3.32946742 0 0 Z " fill="#2D2D2D" transform="translate(587,129)"/>
<path d="M0 0 C0 0.99 0 1.98 0 3 C-1.32 3.33 -2.64 3.66 -4 4 C-4 7.63 -4 11.26 -4 15 C-2.68 15.33 -1.36 15.66 0 16 C0 16.99 0 17.98 0 19 C-3.14158949 18.06601394 -4.7325148 17.33205059 -6.8125 14.75 C-8.22638531 11.47573928 -8.51520132 9.53280906 -8 6 C-4 0 -4 0 0 0 Z " fill="#292929" transform="translate(327,244)"/>
<path d="M0 0 C0 0.33 0 0.66 0 1 C-0.68964844 1.08636719 -1.37929688 1.17273438 -2.08984375 1.26171875 C-12.22780464 2.77754555 -18.72135192 5.92745247 -25 14 C-27.3125 15.375 -27.3125 15.375 -29 16 C-27.6338971 10.36482555 -23.4767106 7.30069205 -19 4 C-12.25248271 0.00901731 -7.74318547 -1.1424372 0 0 Z " fill="#4E4E4E" transform="translate(547,87)"/>
<path d="M0 0 C0.99 0.33 1.98 0.66 3 1 C2.67 2.32 2.34 3.64 2 5 C1.34 4.67 0.68 4.34 0 4 C-0.12375 4.7425 -0.2475 5.485 -0.375 6.25 C-0.95486701 8.80141485 -1.73708739 10.7267573 -3 13 C-1.02 13 0.96 13 3 13 C3 13.33 3 13.66 3 14 C0.69 14 -1.62 14 -4 14 C-4.33 15.65 -4.66 17.3 -5 19 C-5.99 19 -6.98 19 -8 19 C-6.00386732 12.2813095 -3.2708579 6.19265192 0 0 Z " fill="#232323" transform="translate(485,244)"/>
<path d="M0 0 C6.75 -0.125 6.75 -0.125 9 1 C9 2.65 9 4.3 9 6 C6.04335481 7.4783226 3.25770263 7.06032783 0 7 C0 4.69 0 2.38 0 0 Z " fill="#E8E8E8" transform="translate(416,254)"/>
<path d="M0 0 C2.43616749 1.5502884 4.22377924 3.07976764 6.0625 5.3125 C6.0625 6.6325 6.0625 7.9525 6.0625 9.3125 C1.28092482 8.20905957 -1.9122406 7.30584241 -4.9375 3.3125 C-4.9375 2.3225 -4.9375 1.3325 -4.9375 0.3125 C-1.9375 -0.6875 -1.9375 -0.6875 0 0 Z " fill="#C3C3C3" transform="translate(568.9375,116.6875)"/>
<path d="M0 0 C9.6092603 -0.43026539 9.6092603 -0.43026539 14 3 C15 4 15 4 15.09765625 5.84765625 C15.04882812 8.92382812 15.04882812 8.92382812 15 12 C14.67 12 14.34 12 14 12 C13.5978125 10.329375 13.5978125 10.329375 13.1875 8.625 C12.34190981 4.78159049 12.34190981 4.78159049 9 3 C6.9507906 2.54860541 6.9507906 2.54860541 4.8125 2.375 C3.554375 2.25125 2.29625 2.1275 1 2 C1 6.95 1 11.9 1 17 C0.67 17 0.34 17 0 17 C0 11.39 0 5.78 0 0 Z " fill="#010101" transform="translate(548,244)"/>
<path d="M0 0 C0.66 0.33 1.32 0.66 2 1 C-1.86126589 5.62412998 -5.77024628 9.8452368 -10.421875 13.6796875 C-12.40343594 15.33752809 -14.21023478 17.13864417 -16 19 C-14.54824556 14.35266775 -11.8485602 11.27850091 -8.5625 7.8125 C-8.07201172 7.27947266 -7.58152344 6.74644531 -7.07617188 6.19726562 C-4.82810603 3.78537312 -2.75553474 1.83702316 0 0 Z " fill="#717171" transform="translate(617,42)"/>
<path d="M0 0 C0.99 0.33 1.98 0.66 3 1 C-1.12990804 5.54423538 -6.87180734 8.75071769 -13.078125 9.12548828 C-17.75193118 9.06644419 -22.3662056 8.58721861 -27 8 C-27 7.67 -27 7.34 -27 7 C-26.09378906 6.96261719 -25.18757813 6.92523438 -24.25390625 6.88671875 C-15.03968188 6.38944315 -7.43005716 5.71542859 0 0 Z " fill="#272727" transform="translate(141,205)"/>
<path d="M0 0 C0 0.33 0 0.66 0 1 C-0.61746094 1.14695312 -1.23492187 1.29390625 -1.87109375 1.4453125 C-9.38974239 3.43655278 -16.55894334 6.338415 -21 13 C-21.99 13 -22.98 13 -24 13 C-21.01642455 6.04332157 -13.76988877 2.4364541 -7.0546875 -0.38671875 C-4.41883518 -1.17346555 -2.55681829 -0.98973611 0 0 Z " fill="#464646" transform="translate(99,87)"/>
<path d="M0 0 C0.66 0 1.32 0 2 0 C1.58999504 3.8950471 1.19513703 7.39019678 0 11.125 C-1.79624034 16.84884048 -1.68653928 23.05249526 -2 29 C-2.33 29 -2.66 29 -3 29 C-4.66384365 18.43820985 -3.00460876 10.0454516 0 0 Z " fill="#5A5A5A" transform="translate(383,177)"/>
<path d="M0 0 C1.98 0.99 1.98 0.99 4 2 C4.33 2.99 4.66 3.98 5 5 C4.01 5.495 4.01 5.495 3 6 C2.53045739 9.04581269 2.53045739 9.04581269 2.375 12.5625 C2.30023437 13.76003906 2.22546875 14.95757812 2.1484375 16.19140625 C2.09945312 17.11824219 2.05046875 18.04507812 2 19 C1.34 19 0.68 19 0 19 C0 12.73 0 6.46 0 0 Z " fill="#0D0D0D" transform="translate(513,244)"/>
<path d="M0 0 C1.98 0.99 1.98 0.99 4 2 C4.33 2.99 4.66 3.98 5 5 C4.01 5.495 4.01 5.495 3 6 C2.53045739 9.04581269 2.53045739 9.04581269 2.375 12.5625 C2.30023438 13.76003906 2.22546875 14.95757812 2.1484375 16.19140625 C2.09945313 17.11824219 2.05046875 18.04507812 2 19 C1.34 19 0.68 19 0 19 C0 12.73 0 6.46 0 0 Z " fill="#0D0D0D" transform="translate(358,244)"/>
<path d="M0 0 C0.66 1.32 1.32 2.64 2 4 C1.34 4 0.68 4 0 4 C-0.26554687 4.85851562 -0.53109375 5.71703125 -0.8046875 6.6015625 C-2.01023801 10.02910808 -3.47244386 13.14173798 -5.125 16.375 C-5.66382813 17.43460938 -6.20265625 18.49421875 -6.7578125 19.5859375 C-7.16773438 20.38257812 -7.57765625 21.17921875 -8 22 C-8.66 21.67 -9.32 21.34 -10 21 C-8.51991304 15.99886406 -6.3681664 11.67084403 -3.875 7.125 C-3.50246094 6.43664062 -3.12992187 5.74828125 -2.74609375 5.0390625 C-1.83500474 3.35705202 -0.91809685 1.67819564 0 0 Z " fill="#3B3B3B" transform="translate(418,100)"/>
<path d="M0 0 C2.31 0 4.62 0 7 0 C7.38218767 1.65614657 7.71395102 3.32457024 8 5 C7 6 7 6 3.4375 6.0625 C2.303125 6.041875 1.16875 6.02125 0 6 C0 4.02 0 2.04 0 0 Z " fill="#F4F4F4" transform="translate(416,246)"/>
<path d="M0 0 C8.17817372 -0.36080178 8.17817372 -0.36080178 11.5625 1.125 C13.58743318 3.76621719 13.28748553 5.76578783 13 9 C12.34 9 11.68 9 11 9 C10.67 7.35 10.34 5.7 10 4 C5.545 3.01 5.545 3.01 1 2 C1 4.64 1 7.28 1 10 C0.67 10 0.34 10 0 10 C0 6.7 0 3.4 0 0 Z " fill="#020202" transform="translate(447,244)"/>
<path d="M0 0 C2.4375 0.6875 2.4375 0.6875 5 2 C6.17613456 5.19236524 6.35185601 7.84566931 5 11 C4.01 11.33 3.02 11.66 2 12 C2 9.36 2 6.72 2 4 C1.01 4 0.02 4 -1 4 C-0.67 2.68 -0.34 1.36 0 0 Z " fill="#4A4A4A" transform="translate(578,102)"/>
<path d="M0 0 C0.33 0 0.66 0 1 0 C1 4.95 1 9.9 1 15 C0.01 15.33 -0.98 15.66 -2 16 C-3.00873016 14.73608512 -4.00671822 13.46359117 -5 12.1875 C-5.556875 11.47980469 -6.11375 10.77210938 -6.6875 10.04296875 C-8 8 -8 8 -8 5 C-7.34 5 -6.68 5 -6 5 C-4.1411321 7.20810975 -2.62305722 9.6081262 -1 12 C-0.67 8.04 -0.34 4.08 0 0 Z " fill="#353535" transform="translate(525,244)"/>
<path d="M0 0 C0.33 0 0.66 0 1 0 C1 4.95 1 9.9 1 15 C0.01 15.33 -0.98 15.66 -2 16 C-3.00873016 14.73608512 -4.00671822 13.46359117 -5 12.1875 C-5.556875 11.47980469 -6.11375 10.77210938 -6.6875 10.04296875 C-8 8 -8 8 -8 5 C-7.34 5 -6.68 5 -6 5 C-4.1411321 7.20810975 -2.62305722 9.6081262 -1 12 C-0.67 8.04 -0.34 4.08 0 0 Z " fill="#353535" transform="translate(370,244)"/>
<path d="M0 0 C0.33 0.66 0.66 1.32 1 2 C1.66 2.33 2.32 2.66 3 3 C1.8782037 4.7936743 0.75245517 6.5848773 -0.375 8.375 C-1.00148438 9.37273437 -1.62796875 10.37046875 -2.2734375 11.3984375 C-4 14 -4 14 -6 16 C-6.99 15.67 -7.98 15.34 -9 15 C-8.60167969 14.50371094 -8.20335937 14.00742188 -7.79296875 13.49609375 C-4.40115025 9.14697367 -1.93684016 5.1649071 0 0 Z " fill="#292929" transform="translate(496,112)"/>
<path d="M0 0 C0.82638376 2.89234315 1 4.88742431 1 8 C1.30404678 9.67225729 1.63128912 11.34080104 2 13 C-0.475 14.485 -0.475 14.485 -3 16 C-3 15.01 -3 14.02 -3 13 C-2.34 13 -1.68 13 -1 13 C-1 11.35 -1 9.7 -1 8 C-1.99 7.67 -2.98 7.34 -4 7 C-3.39816251 4.97954558 -2.72693904 2.97888961 -2 1 C-1.34 0.67 -0.68 0.34 0 0 Z " fill="#212121" transform="translate(426,247)"/>
<path d="M0 0 C0.33 1.32 0.66 2.64 1 4 C-1.37258487 6.19007834 -2.76464913 6.965678 -6 7.4375 C-9.65146525 6.90499465 -10.78728121 5.89355535 -13 3 C-13 2.34 -13 1.68 -13 1 C-12.01 1 -11.02 1 -10 1 C-10 1.99 -10 2.98 -10 4 C-6.62563814 4.33380814 -6.62563814 4.33380814 -3 4 C-1.01760473 2.13875077 -1.01760473 2.13875077 0 0 Z " fill="#0A0A0A" transform="translate(243,256)"/>
<path d="M0 0 C2.375 1.3125 2.375 1.3125 4 3 C4 3.99 4 4.98 4 6 C3.01 6 2.02 6 1 6 C1 5.01 1 4.02 1 3 C-2.94727588 2.82057837 -5.5980513 2.90649311 -9 5 C-8.625 3.0625 -8.625 3.0625 -8 1 C-5.19084526 -0.40457737 -3.11189466 -0.24895157 0 0 Z " fill="#1D1D1D" transform="translate(240,244)"/>
<path d="M0 0 C-6.60756604 2.61229355 -13.05078798 2.16446255 -20 1 C-20.99 0.34 -21.98 -0.32 -23 -1 C-22.13117188 -0.98839844 -21.26234375 -0.97679687 -20.3671875 -0.96484375 C-19.21476563 -0.95582031 -18.06234375 -0.94679687 -16.875 -0.9375 C-15.16957031 -0.92009766 -15.16957031 -0.92009766 -13.4296875 -0.90234375 C-10.00899666 -0.91917104 -10.00899666 -0.91917104 -6.71875 -1.5625 C-3.66600287 -2.05374666 -2.54326029 -1.66290096 0 0 Z " fill="#555555" transform="translate(241,213)"/>
<path d="M0 0 C3.3 0 6.6 0 10 0 C10 0.66 10 1.32 10 2 C7.36 2 4.72 2 2 2 C2 4.31 2 6.62 2 9 C1.34 9 0.68 9 0 9 C0 6.03 0 3.06 0 0 Z " fill="#121212" transform="translate(169,244)"/>
<path d="M0 0 C2.15377564 2.62198774 3.40072174 4.64404172 4 8 C1.69 8 -0.62 8 -3 8 C-1.125 1.125 -1.125 1.125 0 0 Z " fill="#E6E6E6" transform="translate(204,248)"/>
<path d="M0 0 C0.33 0 0.66 0 1 0 C1.02578125 0.65226563 1.0515625 1.30453125 1.078125 1.9765625 C1.54238306 9.13035715 2.87602854 12.87602854 8 18 C7.01 18.33 6.02 18.66 5 19 C1.57064398 15.79189276 0.06409552 13.91517412 -0.09765625 9.08203125 C-0.08605469 8.00308594 -0.07445312 6.92414063 -0.0625 5.8125 C-0.05347656 4.72582031 -0.04445313 3.63914063 -0.03515625 2.51953125 C-0.02355469 1.68808594 -0.01195312 0.85664063 0 0 Z " fill="#2B2B2B" transform="translate(379,196)"/>
<path d="M0 0 C0.66 0 1.32 0 2 0 C3.25664978 2.90600261 4 4.79604584 4 8 C2.02 8 0.04 8 -2 8 C-1.33333333 5.33333333 -0.66666667 2.66666667 0 0 Z " fill="#E5E5E5" transform="translate(485,248)"/>
<path d="M0 0 C-7.59183029 2.03232625 -14.22882846 1.9880871 -22 1 C-22 0.67 -22 0.34 -22 0 C-20.44539062 -0.09087891 -20.44539062 -0.09087891 -18.859375 -0.18359375 C-17.48957127 -0.26803371 -16.11978025 -0.35267997 -14.75 -0.4375 C-14.06808594 -0.47681641 -13.38617187 -0.51613281 -12.68359375 -0.55664062 C-9.9368323 -0.72997994 -7.35624118 -0.89761095 -4.703125 -1.66015625 C-3 -2 -3 -2 0 0 Z " fill="#696969" transform="translate(580,212)"/>
<path d="M0 0 C3.23356015 1.21258505 4.00856305 2.01284458 6 5 C5.34 5 4.68 5 4 5 C4 5.99 4 6.98 4 8 C2.35 8 0.7 8 -1 8 C0.32 7.67 1.64 7.34 3 7 C1.74458443 4.48916886 0.49936512 4.12874554 -2 3 C-2 2.34 -2 1.68 -2 1 C-1.34 0.67 -0.68 0.34 0 0 Z " fill="#1F1F1F" transform="translate(598,146)"/>
<path d="M0 0 C0.33 0 0.66 0 1 0 C1 5.28 1 10.56 1 16 C0.01 15.34 -0.98 14.68 -2 14 C-2.29296875 11.6171875 -2.29296875 11.6171875 -2.1875 8.875 C-2.16042969 7.96492188 -2.13335938 7.05484375 -2.10546875 6.1171875 C-2.07066406 5.41851562 -2.03585937 4.71984375 -2 4 C-1.34 4 -0.68 4 0 4 C0 2.68 0 1.36 0 0 Z " fill="#A5A5A5" transform="translate(583,109)"/>
<path d="M0 0 C0.66 0.33 1.32 0.66 2 1 C0.92492371 2.29854721 -0.16043736 3.58858361 -1.25 4.875 C-1.85328125 5.59429687 -2.4565625 6.31359375 -3.078125 7.0546875 C-4.97087634 8.97052118 -6.53657727 9.96449045 -9 11 C-7.59928507 5.70841026 -4.14512755 3.22521956 0 0 Z " fill="#2B2B2B" transform="translate(527,92)"/>
<path d="M0 0 C7.74468085 0.74468085 7.74468085 0.74468085 11 4 C11 4.66 11 5.32 11 6 C7.08406554 5.21681311 3.63593365 3.60820142 0 2 C0 1.34 0 0.68 0 0 Z " fill="#181818" transform="translate(327,244)"/>
<path d="M0 0 C1.54627671 2.31941506 2.86182828 4.52979752 4.125 7 C4.47820312 7.680625 4.83140625 8.36125 5.1953125 9.0625 C6 11 6 11 6 14 C2.66838603 11.01303575 0.65173443 8.17280278 -1 4 C-0.6875 1.625 -0.6875 1.625 0 0 Z " fill="#363636" transform="translate(302,127)"/>
<path d="M0 0 C-2.36551942 2.73902249 -4.54857221 3.93170092 -8 5 C-10.8125 5.125 -10.8125 5.125 -13 5 C-11.05073178 3.05073178 -9.4892942 2.06431004 -7.0625 0.8125 C-6.37285156 0.44769531 -5.68320313 0.08289063 -4.97265625 -0.29296875 C-3 -1 -3 -1 0 0 Z " fill="#242424" transform="translate(252,207)"/>
<path d="M0 0 C-0.66 0.66 -1.32 1.32 -2 2 C-4.75589777 1.98252073 -7.38786676 1.86136729 -10.125 1.625 C-10.87910156 1.56828125 -11.63320312 1.5115625 -12.41015625 1.453125 C-14.27418096 1.3115535 -16.13721137 1.15700041 -18 1 C-18 0.67 -18 0.34 -18 0 C-15.75067773 -0.1954625 -13.50049858 -0.38108226 -11.25 -0.5625 C-9.99703125 -0.66691406 -8.7440625 -0.77132812 -7.453125 -0.87890625 C-4.60547636 -0.97876723 -2.65713933 -0.90584295 0 0 Z " fill="#777777" transform="translate(132,212)"/>
<path d="M0 0 C0.66 0.99 1.32 1.98 2 3 C0.35 6.3 -1.3 9.6 -3 13 C-4.23593891 9.29218328 -3.5678132 8.32489747 -2.0625 4.8125 C-1.68222656 3.91144531 -1.30195313 3.01039063 -0.91015625 2.08203125 C-0.60980469 1.39496094 -0.30945313 0.70789063 0 0 Z " fill="#404040" transform="translate(403,194)"/>
<path d="M0 0 C0 0.33 0 0.66 0 1 C-1.57914015 1.53341184 -3.16354387 2.05125763 -4.75 2.5625 C-5.63171875 2.85253906 -6.5134375 3.14257812 -7.421875 3.44140625 C-10.07834316 4.01697435 -11.47031106 3.89248371 -14 3 C-4.58997722 -1.77676538 -4.58997722 -1.77676538 0 0 Z " fill="#3D3D3D" transform="translate(207,88)"/>
<path d="M0 0 C0.66 0.99 1.32 1.98 2 3 C0.68 5.64 -0.64 8.28 -2 11 C-2.66 10.67 -3.32 10.34 -4 10 C-2.8905928 6.51329166 -1.73662334 3.22515763 0 0 Z " fill="#484848" transform="translate(412,111)"/>
<path d="M0 0 C2.86724686 0.57344937 3.8614515 0.8614515 6 3 C6.26991906 5.68839385 6.08737357 8.29141936 6 11 C5.67 11 5.34 11 5 11 C4.731875 9.88625 4.46375 8.7725 4.1875 7.625 C3.34190981 3.78159049 3.34190981 3.78159049 0 2 C0 1.34 0 0.68 0 0 Z " fill="#0C0C0C" transform="translate(557,245)"/>
<path d="M0 0 C0.36923077 6.52307692 0.36923077 6.52307692 -1.5 8.9375 C-1.995 9.288125 -2.49 9.63875 -3 10 C-4.16909807 6.49270578 -3.85056945 4.55692677 -3 1 C-1 0 -1 0 0 0 Z " fill="#3F3F3F" transform="translate(564,250)"/>
<path d="M0 0 C0.99 0 1.98 0 3 0 C3 1.98 3 3.96 3 6 C2.01 6.33 1.02 6.66 0 7 C0 4.69 0 2.38 0 0 Z " fill="#2F2F2F" transform="translate(336,250)"/>
<path d="M0 0 C1.46726798 3.81489674 0.43336419 6.29011622 -1 10 C-1.66 10 -2.32 10 -3 10 C-2.39009109 6.44219804 -1.4216319 3.3171411 0 0 Z " fill="#222222" transform="translate(199,253)"/>
<path d="M0 0 C1.32 0.66 2.64 1.32 4 2 C4 3.98 4 5.96 4 8 C3.34 8 2.68 8 2 8 C1.814375 6.824375 1.814375 6.824375 1.625 5.625 C1.20882007 2.85942178 1.20882007 2.85942178 -1 1 C-0.67 0.67 -0.34 0.34 0 0 Z " fill="#161616" transform="translate(456,245)"/>
<path d="M0 0 C-5.41538462 4.06153846 -5.41538462 4.06153846 -8.375 3.75 C-8.91125 3.5025 -9.4475 3.255 -10 3 C-3.375 -1.125 -3.375 -1.125 0 0 Z " fill="#1A1A1A" transform="translate(588,207)"/>
<path d="M0 0 C0.66 0.33 1.32 0.66 2 1 C-1.61328125 5.6875 -1.61328125 5.6875 -3 7 C-3.99 7 -4.98 7 -6 7 C-4.60667426 3.63279613 -3.0210714 2.0140476 0 0 Z " fill="#2B2B2B" transform="translate(81,93)"/>
<path d="M0 0 C-1.49097658 3.7952131 -3.75700849 5.61042731 -7 8 C-4.18918919 0 -4.18918919 0 0 0 Z " fill="#272727" transform="translate(418,175)"/>
<path d="M0 0 C0.99 0 1.98 0 3 0 C3 0.99 3 1.98 3 3 C3.66 3 4.32 3 5 3 C5.33 3.99 5.66 4.98 6 6 C3.5625 5.25 3.5625 5.25 1 4 C0.1875 1.875 0.1875 1.875 0 0 Z " fill="#262626" transform="translate(230,257)"/>
<path d="M0 0 C0.33 1.32 0.66 2.64 1 4 C-1.475 5.485 -1.475 5.485 -4 7 C-4 6.01 -4 5.02 -4 4 C-3.34 4 -2.68 4 -2 4 C-1.67 3.01 -1.34 2.02 -1 1 C-0.67 0.67 -0.34 0.34 0 0 Z " fill="#323232" transform="translate(427,256)"/>
<path d="M0 0 C0.99 0.33 1.98 0.66 3 1 C2.67 2.32 2.34 3.64 2 5 C1.34 4.67 0.68 4.34 0 4 C-0.33 4.66 -0.66 5.32 -1 6 C-1.042721 4.33388095 -1.04063832 2.66617115 -1 1 C-0.67 0.67 -0.34 0.34 0 0 Z " fill="#0F0F0F" transform="translate(485,244)"/>
<path d="M0 0 C-4.75 4 -4.75 4 -7 4 C-6.625 2.0625 -6.625 2.0625 -6 0 C-3.50907189 -1.24546405 -2.58919267 -0.7767578 0 0 Z " fill="#1C1C1C" transform="translate(195,93)"/>
</svg>
